<?xml version="1.0" encoding="utf-8"?>
<!-- Generator: Adobe Illustrator 16.0.3, SVG Export Plug-In . SVG Version: 6.00 Build 0)  -->
<!DOCTYPE svg PUBLIC "-//W3C//DTD SVG 1.1//EN" "http://www.w3.org/Graphics/SVG/1.1/DTD/svg11.dtd">
<svg version="1.1" xmlns="http://www.w3.org/2000/svg" xmlns:xlink="http://www.w3.org/1999/xlink" x="0px" y="0px" width="330px"
	 height="191px" viewBox="0 0 330 191" enable-background="new 0 0 330 191" xml:space="preserve">
<g id="Layer_1">
	<path id="object" fill="#00AEEF" d="M99.41,171.954 M323.41,170.02 M229.41,171.954 M323.41,170.02 M164.91,7.954 M323.41,170.02
		 M324.286,169.912c2.069-0.505-1.868-147.715-159.376-161.958 M324.286,169.912c-25-31.934-83.876-17.958-94.876,2.042
		c-66-36.667-126.416-0.75-129.416-1.083c-47-44-94.584,1.083-94.584,1.083v-1c-0.203-15.667,8-154,159.5-163"/>
</g>
<g id="Layer_2">
	<path id="outline_1_" fill="none" stroke="#000000" stroke-miterlimit="10" d="M99.41,171.954 M323.41,170.02 M229.41,171.954
		 M323.41,170.02 M164.91,7.954 M323.41,170.02 M324.286,169.912c2.069-0.505-1.868-147.715-159.376-161.958 M324.286,169.912
		c-25-31.934-83.876-17.958-94.876,2.042c-66-36.667-126.416-0.75-129.416-1.083c-47-44-94.584,1.083-94.584,1.083v-1
		c-0.203-15.667,8-154,159.5-163"/>
	<path id="outline" display="none" fill="none" stroke="#000000" stroke-miterlimit="10" d="M99.584,170.917
		C99.584,170.917,97.5,14,164.5,8c55.105-4.935,63.47,165.649,64.5,164S169,136,99.584,170.917z"/>
</g>
</svg>
